<svg xmlns="http://www.w3.org/2000/svg" viewBox="-4 -2.5 167.8 154.8">
  <!-- sleeves -->
  <path d="M 34 18 L 4 34 C -2 46 6 62 18 66 L 38 50 Z" fill="#00D9C0" stroke="#17130F" stroke-width="5" stroke-linejoin="round"/>
  <path d="M 126 18 L 156 34 C 162 46 154 62 142 66 L 122 50 Z" fill="#00D9C0" stroke="#17130F" stroke-width="5" stroke-linejoin="round"/>
  <!-- body -->
  <path d="M 34 18 C 44 8 54 4 80 4 C 106 4 116 8 126 18 L 122 52 L 122 146 L 38 146 L 38 52 Z" fill="#00D9C0" stroke="#17130F" stroke-width="5" stroke-linejoin="round"/>
  <!-- hem shade -->
  <rect x="38" y="130" width="84" height="16" fill="#00A896"/>
  <!-- collar -->
  <path d="M 58 6 C 64 20 96 20 102 6 C 96 26 64 26 58 6 Z" fill="#00A896" stroke="#17130F" stroke-width="4" stroke-linejoin="round"/>
  <!-- chest star patch -->
  <path d="M 80 66 L 85 78 L 98 78 L 88 86 L 92 98 L 80 90 L 68 98 L 72 86 L 62 78 L 75 78 Z" fill="#FFD400" stroke="#17130F" stroke-width="3.5" stroke-linejoin="round"/>
  <!-- gloss -->
  <ellipse cx="56" cy="46" rx="16" ry="26" fill="#FFFFFF" opacity="0.35" transform="rotate(-10 56 46)"/>
</svg>
